<svg width="631" height="243" viewBox="0 0 631 243" fill="none" xmlns="http://www.w3.org/2000/svg">
<g clip-path="url(#clip0_36_67)">
<mask id="mask0_36_67" style="mask-type:luminance" maskUnits="userSpaceOnUse" x="66" y="65" width="500" height="114">
<path d="M566 65H66V179H566V65Z" fill="white"/>
</mask>
<g mask="url(#mask0_36_67)">
<path d="M561.991 101.749C559.319 94.7746 555.845 88.8734 551.302 83.7769C546.224 77.8757 539.543 73.0475 532.061 69.8287C524.311 66.6099 516.027 64.7322 506.941 65.0004C498.122 65.0004 489.837 66.6099 482.087 69.8287C474.338 73.0475 467.924 77.6075 462.579 83.7769C458.303 88.6051 454.829 94.5063 452.157 101.48C449.485 108.455 448.148 115.429 448.148 122.135C448.148 128.84 449.485 135.546 451.89 142.52C454.562 149.495 458.036 155.396 462.312 160.492C467.389 166.393 473.803 170.953 481.82 174.44C489.57 177.659 497.854 179.269 506.673 179.269C515.492 179.269 524.044 177.659 531.794 174.44C539.543 171.222 545.957 166.393 551.035 160.492C555.578 155.396 559.052 149.495 561.724 142.52C564.129 135.546 565.465 128.84 565.733 122.135C566 115.429 564.664 108.455 561.991 101.749ZM530.19 102.553C532.595 105.236 534.199 108.186 535.535 111.673C536.871 115.16 537.405 118.648 537.405 122.403C537.405 129.645 535 136.083 530.19 141.716C527.251 144.935 523.776 147.617 520.035 149.495C516.027 151.372 511.751 152.177 507.475 152.177C502.932 152.177 498.923 151.372 494.915 149.495C490.906 147.617 487.432 144.935 484.76 141.716C482.355 139.033 480.751 135.815 479.415 132.596C478.079 129.109 477.544 125.89 477.544 122.403C477.544 118.916 478.079 115.429 479.415 112.21C480.751 108.723 482.355 105.772 484.76 103.09C487.699 99.6028 491.174 97.1887 494.915 95.311C498.656 93.4334 502.932 92.6287 507.475 92.6287C512.018 92.6287 516.027 93.4334 520.035 95.311C523.776 96.6522 527.251 99.3346 530.19 102.553Z" fill="#EB1123"/>
<path d="M394.167 100.944L406.192 135.814H381.606L394.167 100.944ZM378.934 66.8779L337.245 176.318H366.908L373.857 157.273H413.675L420.356 176.318H450.553L409.934 66.8779H378.934Z" fill="#EB1123"/>
<path d="M324.418 66.8779L297.961 133.669L271.772 66.8779H241.04L286.738 176.586H308.651L355.15 66.8779H324.418Z" fill="#EB1123"/>
<path d="M190.8 66.8779V176.586H253.066V152.713H219.127V66.8779H190.8Z" fill="#EB1123"/>
<path d="M107.689 66.8779L66 176.586H95.9305L102.611 157.273H132.809L125.059 135.546H110.361L122.921 100.944L149.378 176.586H179.308L138.688 66.8779H107.689Z" fill="#EB1123"/>
</g>
</g>
<defs>
<clipPath id="clip0_36_67">
<rect width="500" height="114" fill="white" transform="translate(66 65)"/>
</clipPath>
</defs>
</svg>
